<svg xmlns="http://www.w3.org/2000/svg" width="500" height="500" style="width:100%;height:100%;transform:translate3d(0,0,0);content-visibility:visible" viewBox="0 0 500 500"><defs><clipPath id="a"><path d="M0 0h500v500H0z"/></clipPath><clipPath id="c"><path d="M0 0h500v500H0z"/></clipPath><clipPath id="b"><path d="M0 0h500v500H0z"/></clipPath></defs><g clip-path="url(#a)"><g clip-path="url(#b)" style="display:block"><g class="primary design" style="display:none"><path fill="#121330" d="M192.72 270.832H98.983c-20.205 0-36.452 16.456-36.452 36.452v93.735c0 19.997 16.247 36.453 36.452 36.453h93.735c19.997 0 36.453-16.456 36.453-36.453v-93.735c0-19.996-16.456-36.452-36.453-36.452zm5.207 130.187c0 2.917-2.291 5.208-5.208 5.208H98.984c-2.916 0-5.207-2.291-5.207-5.208v-93.735c0-2.916 2.291-5.207 5.207-5.207h93.735c2.917 0 5.208 2.291 5.208 5.207v93.735zM192.72 62.532H98.983c-20.205 0-36.452 16.456-36.452 36.452v93.735c0 19.997 16.247 36.453 36.452 36.453h93.735c19.997 0 36.453-16.456 36.453-36.453V98.984c0-19.996-16.456-36.452-36.453-36.452zm5.207 130.187c0 2.917-2.291 5.208-5.208 5.208H98.984c-2.916 0-5.207-2.291-5.207-5.208V98.984c0-2.916 2.291-5.207 5.207-5.207h93.735c2.917 0 5.208 2.291 5.208 5.207v93.735zM401.02 62.532h-93.736c-20.205 0-36.452 16.456-36.452 36.452v93.735c0 19.997 16.456 36.453 36.452 36.453h93.735c19.997 0 36.453-16.456 36.453-36.453V98.984c0-19.996-16.456-36.452-36.453-36.452zm5.207 130.187c0 2.917-2.291 5.208-5.208 5.208h-93.735c-2.916 0-5.207-2.291-5.207-5.208V98.984c0-2.916 2.291-5.207 5.207-5.207h93.735c2.917 0 5.208 2.291 5.208 5.207v93.735zM421.85 338.53h-52.076v-52.076c0-8.54-7.082-15.622-15.622-15.622s-15.623 7.082-15.623 15.622v52.075h-52.075c-8.54 0-15.622 7.083-15.622 15.623s7.082 15.622 15.622 15.622h52.075v52.075c0 8.54 7.083 15.623 15.623 15.623s15.622-7.082 15.622-15.623v-52.075h52.075c8.54 0 15.623-7.082 15.623-15.622s-7.082-15.623-15.623-15.623z" class="primary"/></g><g class="primary design" style="display:block"><path fill="#121330" d="M192.72 270.832H98.983c-20.205 0-36.452 16.456-36.452 36.452v93.735c0 19.997 16.247 36.453 36.452 36.453h93.735c19.997 0 36.453-16.456 36.453-36.453v-93.735c0-19.996-16.456-36.452-36.453-36.452zm5.207 130.187c0 2.917-2.291 5.208-5.208 5.208H98.984c-2.916 0-5.207-2.291-5.207-5.208v-93.735c0-2.916 2.291-5.207 5.207-5.207h93.735c2.917 0 5.208 2.291 5.208 5.207v93.735zM192.72 62.532H98.983c-20.205 0-36.452 16.456-36.452 36.452v93.735c0 19.997 16.247 36.453 36.452 36.453h93.735c19.997 0 36.453-16.456 36.453-36.453V98.984c0-19.996-16.456-36.452-36.453-36.452zm5.207 130.187c0 2.917-2.291 5.208-5.208 5.208H98.984c-2.916 0-5.207-2.291-5.207-5.208V98.984c0-2.916 2.291-5.207 5.207-5.207h93.735c2.917 0 5.208 2.291 5.208 5.207v93.735zM401.02 62.532h-93.736c-20.205 0-36.452 16.456-36.452 36.452v93.735c0 19.997 16.456 36.453 36.452 36.453h93.735c19.997 0 36.453-16.456 36.453-36.453V98.984c0-19.996-16.456-36.452-36.453-36.452zm5.207 130.187c0 2.917-2.291 5.208-5.208 5.208h-93.735c-2.916 0-5.207-2.291-5.207-5.208V98.984c0-2.916 2.291-5.207 5.207-5.207h93.735c2.917 0 5.208 2.291 5.208 5.207v93.735zM421.85 338.53h-52.076v-52.076c0-8.54-7.082-15.622-15.622-15.622s-15.623 7.082-15.623 15.622v52.075h-52.075c-8.54 0-15.622 7.083-15.622 15.623s7.082 15.622 15.622 15.622h52.075v52.075c0 8.54 7.083 15.623 15.623 15.623s15.622-7.082 15.622-15.623v-52.075h52.075c8.54 0 15.623-7.082 15.623-15.622s-7.082-15.623-15.623-15.623z" class="primary"/></g><g class="primary design" style="display:none"><path fill="none" class="primary"/></g><g class="primary design" style="display:none"><path fill="none" class="primary"/></g><g class="primary design" style="display:none"><path fill="none" class="primary"/></g><g class="primary design" style="display:none"><path fill="none" class="primary"/></g><g class="primary design" style="display:none"><path fill="none" class="primary"/></g></g><g clip-path="url(#c)" style="display:none"><g class="primary design" style="display:none"><path class="primary"/><path class="primary"/><path class="primary"/><path class="primary"/></g><g class="primary design" style="display:none"><path fill="none" class="primary"/></g><g class="primary design" style="display:none"><path fill="none" class="primary"/></g><g class="primary design" style="display:none"><path fill="none" class="primary"/></g><g class="primary design" style="display:none"><path fill="none" class="primary"/></g></g></g></svg>